<?xml version="1.0" standalone="no"?>
<!DOCTYPE svg PUBLIC "-//W3C//DTD SVG 20010904//EN"
 "http://www.w3.org/TR/2001/REC-SVG-20010904/DTD/svg10.dtd">
<svg version="1.0" xmlns="http://www.w3.org/2000/svg"
 width="569.000000pt" height="569.000000pt" viewBox="0 0 569.000000 569.000000"
 preserveAspectRatio="xMidYMid meet">
<metadata>
Created by potrace 1.14, written by Peter Selinger 2001-2017
</metadata>
<g transform="translate(0.000000,569.000000) scale(0.100000,-0.100000)"
fill="#000000" stroke="none">
<path d="M3837 4810 c-372 -49 -755 -165 -1347 -405 -669 -272 -1613 -703
-1738 -794 -69 -51 -46 -97 36 -70 20 6 213 91 427 187 1685 755 2088 902
2650 968 170 19 509 22 655 5 344 -40 636 -134 836 -266 138 -92 227 -211 210
-280 -10 -38 -79 -109 -150 -153 -33 -22 -122 -72 -196 -112 -362 -194 -532
-358 -555 -536 -10 -76 16 -164 77 -259 88 -136 111 -185 112 -231 1 -38 -4
-49 -44 -89 -137 -142 -515 -343 -1285 -685 -176 -78 -331 -151 -343 -163 -47
-43 -55 -74 -49 -173 4 -50 2 -118 -3 -150 -11 -72 -34 -94 -175 -174 -112
-63 -145 -96 -145 -146 0 -43 15 -44 73 -5 24 17 86 50 138 74 127 59 226 123
244 158 11 20 15 63 15 154 0 119 1 127 24 150 31 31 90 60 411 203 552 245
854 394 1025 506 137 90 180 152 180 264 0 73 -20 140 -79 267 -40 87 -46 109
-46 165 0 88 36 160 121 244 78 78 180 148 421 291 100 59 201 126 224 148 47
45 78 107 79 155 0 25 4 32 20 32 16 0 20 7 20 30 0 23 -4 30 -20 30 -14 0
-20 7 -20 24 0 40 -66 159 -125 224 -83 91 -201 175 -349 247 -189 93 -398
145 -695 175 -162 16 -475 11 -634 -10z"/>
<path d="M561 3403 c-5 -10 -14 -52 -20 -93 -16 -101 -29 -113 -150 -141 -170
-38 -247 -80 -275 -149 -20 -50 -20 -76 -1 -131 35 -97 137 -194 411 -389 249
-178 471 -321 1134 -730 317 -195 599 -379 732 -478 54 -40 103 -72 109 -72
17 0 4 54 -31 128 -37 79 -115 158 -235 239 -49 33 -270 167 -490 298 -878
523 -1383 845 -1482 945 -60 59 -79 103 -63 144 13 35 47 49 226 91 156 38
177 47 193 82 14 31 14 201 0 242 -12 35 -42 42 -58 14z"/>
<path d="M860 3236 c0 -7 10 -26 22 -42 33 -42 1687 -1133 1830 -1207 64 -34
149 -47 173 -27 43 35 0 112 -99 179 -111 75 -1586 957 -1797 1074 -67 38
-129 49 -129 23z"/>
<path d="M4937 2344 c-3 -11 -6 -49 -6 -86 0 -85 -28 -164 -88 -252 -84 -122
-234 -222 -633 -418 -255 -126 -320 -165 -320 -196 0 -45 265 50 694 248 245
114 349 191 408 301 20 39 23 57 23 159 0 94 -4 126 -23 175 -26 71 -47 97
-55 69z"/>
<path d="M570 1715 c0 -14 13 -38 33 -57 54 -54 770 -508 801 -508 22 0 26 5
26 27 0 88 -98 186 -297 296 -164 90 -527 267 -548 267 -9 0 -15 -10 -15 -25z"/>
</g>
</svg>
